<svg width="32" height="32" viewBox="0 0 32 32" fill="none" xmlns="http://www.w3.org/2000/svg">
<rect x="3" y="3" width="26" height="26" rx="8" fill="white"/>
<path d="M19.655 13.6743C19.8652 14.272 19.9795 14.9148 19.9795 15.5844C19.9795 15.5914 19.9794 15.5983 19.9793 15.6053C19.3601 15.2088 18.624 14.9789 17.8342 14.9789C17.7574 14.9789 17.6812 14.9812 17.6055 14.9855C18.1715 14.3716 18.8734 13.9058 19.655 13.6743Z" fill="#E6C27A"/>
<path fill-rule="evenodd" clip-rule="evenodd" d="M19.519 4.92334C22.1729 4.92334 24.324 7.07528 24.324 9.72914C24.3239 12.3222 22.2702 14.4341 19.7004 14.5294C19.622 14.5399 19.5428 14.549 19.463 14.5547C19.1902 14.832 18.9455 15.1371 18.7327 15.4647C19.7867 16.6475 20.4274 18.2068 20.4275 19.9157V26.8767H13.4664C9.77 26.8767 6.77348 23.8802 6.77344 20.1838V19.9157C6.77357 17.1288 8.47701 14.7398 10.8995 13.7329C10.9278 13.6656 10.9577 13.5986 10.9886 13.5326L10.9901 13.5334C10.9937 13.5257 10.9976 13.5182 11.0012 13.5105C11.142 13.2123 11.3078 12.9279 11.4956 12.6604C11.5182 12.6284 11.5411 12.5966 11.5643 12.565C11.5981 12.5188 11.6332 12.4737 11.6684 12.4286C11.697 12.3918 11.7256 12.355 11.7551 12.3189C11.8005 12.2635 11.8473 12.2094 11.8947 12.1557C12.0104 12.0249 12.132 11.8994 12.259 11.7795C12.2786 11.761 12.2983 11.7426 12.3182 11.7243C12.5443 11.5169 12.7873 11.3276 13.0445 11.1581C13.0713 11.1404 13.0986 11.1233 13.1257 11.1061C13.3892 10.9386 13.6667 10.791 13.9569 10.6676C13.9679 10.6629 13.979 10.6588 13.99 10.6542C14.672 10.3692 15.4206 10.2118 16.206 10.2118C17.4658 10.2118 18.6304 10.6182 19.5781 11.3048C18.5314 10.2203 17.0635 9.54463 15.4371 9.54461C15.1933 9.54462 14.953 9.56011 14.7171 9.58956C14.7909 7.00022 16.9118 4.92338 19.519 4.92334ZM16.5254 12.203C16.1188 12.203 15.7889 12.5322 15.7889 12.9388C15.7889 13.3454 16.1188 13.6754 16.5254 13.6754C16.9319 13.6752 17.2612 13.3453 17.2612 12.9388C17.2612 12.5323 16.9319 12.2032 16.5254 12.203Z" fill="url(#paint0_linear_1307_22024)"/>
<path d="M11.5664 21.4887C11.5664 18.4946 13.9936 16.0674 16.9878 16.0674V16.0674C19.9819 16.0674 22.4091 18.4946 22.4091 21.4887V26.9101H16.9878C13.9936 26.9101 11.5664 24.4829 11.5664 21.4887V21.4887Z" fill="#1A1A1C"/>
<defs>
<linearGradient id="paint0_linear_1307_22024" x1="4.74549" y1="26.8767" x2="17.0458" y2="18.1868" gradientUnits="userSpaceOnUse">
<stop offset="0.139423" stop-color="#E6C27A"/>
<stop offset="1" stop-color="#ED3D2B"/>
</linearGradient>
</defs>
</svg>
